<svg width="178" height="110" viewBox="0 0 178 110" fill="none" xmlns="http://www.w3.org/2000/svg">
<g id="BI2.0">
<path id="CRAZY (Stroke)" d="M165.751 0.596203C167.143 0.368726 168.561 0.735028 169.665 1.64918C170.665 2.47753 171.142 3.52539 171.363 4.32373C171.8 5.9058 171.552 7.5671 170.949 8.92843L170.949 8.93024C168.612 14.1978 166.239 19.5068 163.825 24.8572L163.821 24.8659L163.816 24.8746C161.039 30.9532 158.314 36.909 155.636 42.7356C155.144 45.8413 154.654 48.9586 154.16 52.0971L154.158 52.1025C153.735 54.7649 153.299 57.5346 152.881 60.1635L152.881 60.1677C152.698 61.3072 152.237 62.4214 151.53 63.3428C150.906 64.1567 149.587 65.4353 147.543 65.5514C146.436 65.6157 145.418 65.6817 144.256 65.7505C143.143 65.8167 142.021 65.8838 140.912 65.9495L140.907 65.9494L140.902 65.95C138.548 66.0836 136.933 64.6218 136.209 63.2363C135.536 61.948 135.46 60.5649 135.631 59.4389L135.631 59.4329C136.033 56.8154 136.437 54.1863 136.839 51.5337L136.84 51.5288L136.84 51.5235C137.307 48.489 137.765 45.4716 138.219 42.4641C137.27 37.2631 136.285 32.0351 135.256 26.7975L134.968 25.3868C132.073 30.1421 129.153 34.8941 126.207 39.6527L126.203 39.6584L126.2 39.6635C124.616 42.2059 123.046 44.7176 121.492 47.2017C123.121 47.0632 124.737 46.9248 126.339 46.7865L126.343 46.7861C128.609 46.5927 130.299 47.905 131.107 49.3462C131.837 50.6486 131.924 52.0577 131.758 53.1902L131.759 53.1907C131.56 54.566 131.356 55.9643 131.148 57.3706C130.941 58.7651 130.739 60.1455 130.542 61.5176L130.54 61.5272L130.539 61.5373C130.366 62.6964 129.897 63.8201 129.173 64.7408C128.518 65.5743 127.211 66.7653 125.245 66.8844C121.537 67.1125 117.78 67.3403 113.997 67.5712L113.995 67.5714C110.239 67.7991 106.508 68.0301 102.804 68.2576L102.794 68.2581L102.785 68.2586C101.787 68.3153 100.902 68.0832 100.158 67.6798C99.472 68.1475 98.6096 68.5099 97.5608 68.5757C96.5015 68.6434 95.6708 68.6909 94.6311 68.7583L94.6065 68.7599C93.2696 68.8385 92.3336 68.9002 90.963 68.9811L90.9495 68.9815L90.936 68.9824C87.276 69.1752 85.7775 65.9849 85.601 64.147L85.596 64.0922C85.503 62.9681 85.4162 61.8448 85.33 60.7342L85.3268 60.6957L85.3247 60.6565C85.3205 60.5852 85.3148 60.5141 85.3105 60.443C84.7594 60.4867 84.201 60.5308 83.6247 60.5756C82.5883 60.6594 81.5498 60.7406 80.5141 60.8212C80.3055 61.4248 80.0988 62.0358 79.8933 62.6532L79.8881 62.6697L79.8818 62.687C79.5002 63.8014 79.1064 64.9371 78.6909 66.0767L78.6902 66.0762C78.1203 67.649 76.5265 69.8002 73.7562 69.9572C72.5718 70.0256 71.3011 70.0883 70.114 70.1535L70.1082 70.1542L70.1017 70.1543C69.1231 70.2052 68.1426 70.2565 67.1732 70.3061C66.5794 70.3365 66.0293 70.2668 65.5258 70.1233C65.0338 70.319 64.4827 70.4503 63.8704 70.4822C63.3688 70.5086 62.8681 70.5333 62.3748 70.5578C61.8814 70.5823 61.3952 70.6061 60.9104 70.6317C59.4664 70.7106 58.0232 70.7837 56.5902 70.8561C53.8725 70.9968 52.0502 69.0913 51.4712 67.1851L50.5063 64.0178C50.3918 64.8133 50.2765 65.606 50.1626 66.3964L50.1616 66.403C49.9814 67.6407 49.425 68.7708 48.6289 69.6419C47.8596 70.4837 46.5823 71.3699 44.8766 71.4568C43.8065 71.5123 42.7025 71.5712 41.5876 71.6248C40.3564 71.6906 39.5001 71.7306 38.2877 71.7958L38.2731 71.7969L38.2584 71.7974C36.5506 71.8772 35.0414 71.1124 34.0768 69.9063C33.4878 70.5784 32.7304 71.1358 31.8128 71.4785L31.7766 71.492L31.7409 71.5043C28.6421 72.5976 25.6394 73.2186 22.7427 73.273L22.7351 73.2732C19.6747 73.3252 16.791 72.8131 14.1764 71.6237C14.1689 71.6204 14.1616 71.6173 14.1541 71.6139C14.1477 71.611 14.1412 71.6084 14.1349 71.6055C11.54 70.4425 9.38588 68.7078 7.74127 66.4597L7.74076 66.4603C7.73853 66.4573 7.73663 66.454 7.7344 66.451C7.73066 66.4459 7.7264 66.441 7.72266 66.4359L7.72318 66.4352C6.10342 64.2376 5.06103 61.6945 4.52708 58.9207L4.51935 58.8786L4.5122 58.8364C4.02468 55.9919 4.10709 52.9452 4.6487 49.7638C5.18665 46.5614 6.13903 43.5497 7.49558 40.761L7.50034 40.751L7.50516 40.7416C8.80278 38.1088 10.3966 35.6987 12.2866 33.5363L12.6685 33.107C14.5918 30.9532 16.7731 29.1031 19.2062 27.5875L19.6982 27.2871C22.3494 25.7001 25.1934 24.5753 28.2186 23.9526L28.7582 23.8483C31.2798 23.3902 33.8392 23.3534 36.4239 23.7051L36.9781 23.7865L37.0195 23.793L37.0604 23.8001C38.0506 23.976 38.8212 24.3657 39.4135 24.8743C39.5987 24.5577 39.8073 24.2634 40.0331 23.9956C40.7089 23.194 41.8296 22.2935 43.3844 22.0265L43.3902 22.0259L43.3954 22.0247C45.0212 21.75 46.6481 21.469 48.2832 21.1867C50.3458 20.8306 52.348 20.4905 54.3606 20.141L54.3663 20.1398L54.3727 20.1385C57.5073 19.604 60.6199 19.8093 63.3956 21.238C63.4088 21.2446 63.4224 21.2516 63.4356 21.2582C63.4453 21.2633 63.4553 21.2681 63.465 21.2731C66.2394 22.6826 68.1333 25.0158 69.2114 27.9L69.3148 28.1722C70.3548 30.9962 70.5212 34.1776 70.0951 37.51C69.7119 40.5037 68.8828 43.2971 67.5709 45.8529L67.5643 45.8666C66.7515 47.4359 65.8018 48.8815 64.7063 50.1822C65.0418 51.1562 65.3764 52.1394 65.7107 53.1317C67.057 49.3931 68.4006 45.6207 69.7416 41.8145C72.3515 34.3347 74.896 26.8877 77.3696 19.4739L77.3701 19.4726C77.8731 17.967 79.2683 15.872 81.8382 15.4266L81.8393 15.4265L87.0815 14.5176C88.9173 14.1933 90.6898 13.8853 92.474 13.568L92.4861 13.566L92.4977 13.5641C93.9754 13.31 95.5042 13.7144 96.6634 14.7453C97.6846 15.6534 98.1705 16.814 98.3441 17.8395L98.3748 18.0428L98.3765 18.0579L98.3788 18.073C99.2743 25.2469 100.097 32.5955 100.854 40.1178L100.855 40.1294C101.092 42.5443 101.32 44.9577 101.545 47.3684C103.809 43.796 106.105 40.1685 108.431 36.4781C109.9 34.1288 111.36 31.7815 112.816 29.4374C111.276 29.673 109.751 29.9065 108.246 30.1355L108.24 30.1363C106.199 30.4436 104.383 29.4918 103.369 27.9966C102.472 26.675 102.333 25.1925 102.474 24.0396L102.475 24.0318L102.475 24.0235C102.655 22.5997 102.78 21.5732 102.964 20.1073L102.964 20.1031C103.13 18.7989 103.29 17.5043 103.452 16.2011C103.601 14.9895 104.085 13.8685 104.771 12.9717C105.419 12.1259 106.575 11.0741 108.272 10.7724C112.126 10.0869 116.015 9.398 119.931 8.69977L119.933 8.69899C123.883 7.99651 127.788 7.30634 131.65 6.61443L131.657 6.61299C132.697 6.4287 133.68 6.57633 134.532 6.95755C135.199 6.3538 136.079 5.82689 137.206 5.62213L137.237 5.61623C138.224 5.44451 139.223 5.26571 140.242 5.08342L140.246 5.08237C141.653 4.83212 143.049 4.58332 144.434 4.33565L144.436 4.33545C145.838 4.08539 147.334 4.43083 148.504 5.43278C149.578 6.35256 150.049 7.53438 150.23 8.47L151.015 12.5538C151.027 12.6143 151.038 12.675 151.049 12.7355C152.12 10.3119 153.181 7.8948 154.236 5.48983C154.781 4.24443 156.117 2.26295 158.577 1.82411L158.591 1.82136C159.959 1.58184 161.343 1.34059 162.735 1.1037C163.74 0.928285 164.745 0.758355 165.75 0.595039L165.751 0.596203Z" fill="#FFE6E6"/>
<g id="Vector">
<path d="M8.93819 50.4681C9.41258 47.639 10.2475 45.0104 11.4217 42.5965C12.6407 40.1233 14.1451 37.8952 15.9307 35.9247C17.7129 33.9244 19.7372 32.2405 21.9998 30.8915C24.2618 29.5366 26.6672 28.5877 29.2181 28.0626C31.5676 27.5785 33.9848 27.5392 36.4796 27.9315C36.9353 28.0125 37.1886 28.4784 37.1016 29.0735C36.9014 30.4355 36.7068 31.7969 36.503 33.1775C36.3612 34.1468 36.2244 35.1095 36.082 36.0729C35.9359 37.0547 34.9654 37.8347 34.2357 37.6099C32.9081 37.2117 31.551 37.0582 30.1645 37.1493C28.239 37.2836 26.4364 37.8443 24.741 38.8453C23.0443 39.8344 21.5998 41.2292 20.3948 43.0191C19.19 44.7607 18.3858 46.9033 17.9664 49.4606C17.5463 52.012 17.6717 54.0731 18.3425 55.6439C19.0162 57.1902 20.0735 58.2827 21.5375 58.9248C22.9967 59.5735 24.7109 59.7468 26.6966 59.4368C28.1261 59.2201 29.6013 58.7509 31.123 58.0351C31.9595 57.6384 32.7355 58.2199 32.5838 59.2024C32.4377 60.1843 32.2859 61.1668 32.1299 62.1618C31.9283 63.512 31.7204 64.8568 31.5139 66.2136C31.4213 66.8093 31.0083 67.3569 30.4976 67.5477C27.7234 68.5264 25.1705 69.0336 22.8168 69.0778C20.257 69.1212 17.9982 68.69 16.0355 67.7909C14.0698 66.9162 12.4811 65.6306 11.2671 63.9647C10.0565 62.3285 9.23367 60.3768 8.80068 58.1274C8.4102 55.8491 8.45747 53.2918 8.93819 50.4681Z" fill="#CF0000"/>
<path d="M38.2156 67.606C37.5835 67.6356 37.172 67.0368 37.2866 66.2817C38.2426 59.8808 39.1959 53.456 40.1557 46.9883C41.0986 40.5224 42.0243 34.1068 42.9308 27.7235C43.0341 26.9697 43.6243 26.2692 44.2476 26.1622C45.8822 25.8861 47.5161 25.6039 49.15 25.3218C51.1938 24.969 53.2213 24.624 55.2311 24.2751C57.7752 23.8413 59.9199 24.0742 61.6728 24.9912C63.433 25.8712 64.6945 27.3507 65.4574 29.4299C66.2558 31.4688 66.4678 33.9906 66.0859 36.9781C65.7583 39.5371 65.0598 41.8547 63.991 43.9368C63.1412 45.5777 62.1414 47.0065 60.9908 48.2171C60.4741 48.7584 60.2206 49.6017 60.4343 50.2229C61.2683 52.6258 62.1014 55.071 62.918 57.5725C63.653 59.7091 64.3768 61.847 65.0955 63.9915C65.4106 64.9511 64.6875 66.2459 63.8054 66.2918C62.8152 66.344 61.8243 66.3902 60.8341 66.4423C59.4003 66.5207 57.9659 66.5932 56.5315 66.6656C56.1162 66.6887 55.7765 66.4196 55.6389 65.9646C54.999 63.8594 54.3508 61.7311 53.6892 59.5861C53.0572 57.4498 52.4074 55.3578 51.7347 53.3167C51.5956 52.8981 51.2592 52.6588 50.8453 52.6937C50.4829 52.7289 50.1148 52.7647 49.7348 52.7958C49.542 52.8116 49.3498 52.8335 49.1513 52.85C48.5226 52.9093 47.9233 53.5807 47.8107 54.3536C47.5423 56.2242 47.2667 58.1317 46.9931 60.0572C46.7088 61.9898 46.4345 63.9093 46.1625 65.7983C46.0499 66.5713 45.45 67.2367 44.8122 67.2669C43.7366 67.3227 42.6439 67.3805 41.5393 67.4336C40.4354 67.4926 39.3252 67.5463 38.2156 67.606ZM53.8989 34.2179C53.364 34.2967 52.8065 34.3782 52.232 34.4615C52.0575 34.4874 51.8829 34.5132 51.7027 34.5397C51.0774 34.6289 50.4865 35.3234 50.3803 36.1017C50.2323 37.1682 50.0838 38.2288 49.9358 39.2953C49.7879 40.3619 49.64 41.4284 49.4921 42.4949C49.3852 43.2672 49.8039 43.829 50.4313 43.7577C50.6913 43.7282 50.9513 43.6986 51.2219 43.6619C51.8549 43.59 52.4986 43.5108 53.1429 43.4376C54.1539 43.3167 55.0378 42.782 55.7981 41.8148C56.565 40.8046 57.0346 39.6473 57.212 38.3361C57.3903 36.9825 57.1887 35.9135 56.5959 35.1301C56.0427 34.3423 55.1439 34.0402 53.8989 34.2179Z" fill="#CF0000"/>
<path d="M67.1115 66.1153C66.3374 66.155 65.9269 65.2122 66.2862 64.2423C68.8235 57.3481 71.3415 50.3353 73.8524 43.2087C76.4697 35.708 79.0218 28.2389 81.5031 20.802C81.721 20.1498 82.2022 19.6487 82.7075 19.5611C84.4368 19.2621 86.1831 18.9612 87.9569 18.6511C89.7753 18.3299 91.5774 18.0166 93.3619 17.6993C93.8785 17.6104 94.2862 17.9744 94.3679 18.5925C95.2589 25.7308 96.0784 33.0462 96.8322 40.5379C97.5412 47.7874 98.1973 55.0248 98.8274 62.235C98.9149 63.2567 98.214 64.3438 97.4462 64.3888C96.4743 64.451 95.5017 64.5071 94.5129 64.5712C93.3016 64.6424 92.0853 64.7203 90.8683 64.7922C90.3732 64.8182 89.9933 64.3969 89.9309 63.7464C89.839 62.6347 89.7527 61.5223 89.6664 60.41C89.5987 59.2594 89.5103 58.1292 89.4071 57.0188C89.3503 56.3677 88.9711 55.9522 88.4667 55.9975C86.7983 56.1267 85.1248 56.2625 83.4394 56.3936C81.783 56.5275 80.1202 56.656 78.4631 56.7839C77.9637 56.8226 77.4614 57.2898 77.2322 57.9433C76.832 59.0566 76.4451 60.1865 76.0652 61.3276C75.687 62.4324 75.303 63.5378 74.9014 64.6392C74.6716 65.2867 74.168 65.7421 73.6672 65.7688C72.4785 65.8375 71.2715 65.8962 70.0369 65.964C69.058 66.0149 68.0791 66.0658 67.1115 66.1153ZM81.8559 44.5196C81.5233 45.5227 81.9424 46.4404 82.7061 46.3596C83.3963 46.2873 84.0809 46.2155 84.7654 46.1438C85.4783 46.0689 86.1798 45.9952 86.8756 45.9222C87.6393 45.8415 88.3217 44.7927 88.234 43.8192C88.0392 41.8022 87.8431 39.7733 87.6293 37.7404C87.529 36.7563 87.423 35.7729 87.3177 34.7955C87.166 33.3588 85.5705 33.5762 85.0553 35.0887C84.7035 36.1241 84.3467 37.1661 83.9836 38.2028C83.2634 40.3298 82.5525 42.4376 81.8559 44.5196Z" fill="#CF0000"/>
<path d="M102.7 64.0695C102.063 64.1057 101.657 63.4097 101.78 62.521C101.958 61.2158 102.141 59.904 102.322 58.5802C102.555 56.8948 102.782 55.2159 103.007 53.5675C103.058 53.2118 103.184 52.8596 103.369 52.5732C106.238 48.0483 109.16 43.433 112.134 38.7153C114.619 34.7408 117.083 30.7748 119.53 26.8167C120.264 25.6232 119.918 24.1362 118.944 24.283C117.296 24.5367 115.63 24.7863 113.941 25.0444C111.86 25.3653 109.8 25.6778 107.768 25.987C107.115 26.0853 106.682 25.4467 106.792 24.5474C106.954 23.256 107.115 21.9468 107.28 20.6309C107.446 19.321 107.607 18.0176 107.769 16.7203C107.874 15.8335 108.498 15.0207 109.16 14.9032C113.009 14.2186 116.904 13.5288 120.821 12.8305C124.766 12.129 128.677 11.4373 132.543 10.7448C133.205 10.6273 133.63 11.291 133.502 12.2345C133.315 13.6072 133.123 14.9925 132.927 16.3903C132.682 18.1676 132.432 19.9456 132.189 21.6925C132.135 22.0727 132.001 22.45 131.807 22.7616C128.831 27.6545 125.825 32.5448 122.792 37.4442C120.279 41.4761 117.809 45.4308 115.37 49.3155C114.643 50.472 114.97 51.9913 115.917 51.9079C117.533 51.7726 119.165 51.6294 120.804 51.4855C122.845 51.3139 124.863 51.139 126.853 50.9672C127.494 50.9126 127.902 51.6324 127.759 52.5898C127.56 53.9637 127.357 55.3562 127.15 56.7553C126.943 58.1544 126.739 59.5409 126.541 60.9208C126.402 61.8597 125.777 62.6607 125.14 62.6968C121.433 62.9249 117.681 63.1521 113.894 63.3831C110.136 63.6109 106.401 63.8422 102.7 64.0695Z" fill="#CF0000"/>
<path d="M140.817 61.7606C140.18 61.7968 139.785 61.0393 139.932 60.0693C140.334 57.4537 140.739 54.8196 141.141 52.1616C141.622 49.0362 142.093 45.93 142.56 42.8363C142.603 42.5599 142.602 42.2947 142.563 42.0517C141.59 36.7145 140.579 31.3454 139.522 25.9635C138.584 21.3401 137.641 16.82 136.701 12.4202C136.464 11.3431 137.223 9.91152 138.109 9.75051C139.108 9.57667 140.118 9.39558 141.134 9.21386C142.542 8.96336 143.94 8.71415 145.325 8.46623C145.791 8.38316 146.153 8.69202 146.264 9.27058C146.787 11.9622 147.304 14.6967 147.831 17.4664C148.235 19.4656 148.623 21.4667 148.99 23.4883C149.223 24.789 150.508 24.6069 151.141 23.1775C152.137 20.9529 153.126 18.7289 154.131 16.4852C155.517 13.3656 156.881 10.2545 158.232 7.1751C158.522 6.50862 159.001 6.03794 159.467 5.95487C160.842 5.71419 162.223 5.47286 163.61 5.23684C164.598 5.06428 165.587 4.89768 166.576 4.73703C167.47 4.5873 167.84 5.9328 167.266 7.22874C164.932 12.4891 162.563 17.7897 160.153 23.1312C157.356 29.2526 154.614 35.2471 151.919 41.1096C151.794 41.3711 151.711 41.646 151.668 41.9283C151.168 45.0861 150.67 48.2557 150.167 51.4439C149.737 54.1533 149.315 56.8377 148.89 59.5042C148.733 60.4873 148.096 61.3259 147.458 61.3621C146.372 61.4252 145.27 61.4961 144.161 61.5617C143.046 61.628 141.926 61.6949 140.817 61.7606Z" fill="#CF0000"/>
<path d="M57.6872 94.0124C57.5174 96.1895 56.877 97.937 55.783 99.2326C54.7168 100.489 53.3412 101.328 51.6506 101.755C49.9767 102.182 48.1375 102.241 46.1276 101.944C44.4063 101.72 42.6635 101.302 40.8993 100.684C40.3556 100.499 40.0133 99.9473 40.0435 99.3418C40.0856 98.5586 40.1276 97.7755 40.1752 96.9923C40.205 96.4924 40.2347 95.9981 40.2645 95.5038C40.3181 94.5929 41.2261 93.9965 42.0526 94.2998C43.3174 94.766 44.5106 95.0986 45.6209 95.303C47.2086 95.5872 48.4808 95.5978 49.4541 95.335C50.422 95.0333 50.9353 94.4743 50.9942 93.6467C51.0298 93.0747 50.8095 92.596 50.3055 92.2162C49.8126 91.8087 49.1419 91.4449 48.3154 91.1138C47.5056 90.7827 46.646 90.4238 45.742 90.0201C44.8326 89.5998 43.9791 89.0797 43.1592 88.4876C42.3618 87.8566 41.7315 87.0763 41.2631 86.1355C40.8003 85.167 40.6162 83.9718 40.7163 82.55C40.8345 80.7782 41.385 79.2804 42.39 78.0344C43.3951 76.7662 44.6935 75.7714 46.302 75.0389C47.9328 74.2955 49.7568 73.8528 51.7517 73.733C53.4799 73.6232 55.2349 73.7636 57.0056 74.1596C57.5551 74.2785 57.8918 74.8354 57.8392 75.4851C57.769 76.3682 57.6988 77.2402 57.6286 78.1121C57.5878 78.6064 57.5468 79.1173 57.506 79.6116C57.4241 80.6391 56.4212 81.3628 55.5724 81.065C54.5127 80.6941 53.497 80.4678 52.5418 80.3806C51.0757 80.2248 49.8919 80.3422 48.9682 80.7163C48.0612 81.0571 47.5813 81.6052 47.5227 82.355C47.4872 82.8937 47.7188 83.3336 48.2285 83.6801C48.7327 84.0265 49.3925 84.3514 50.2024 84.6491C51.0458 84.9247 51.9166 85.267 52.8205 85.6929C53.7245 86.0798 54.5668 86.6221 55.3474 87.303C56.1503 87.9618 56.7801 88.8365 57.2147 89.9272C57.6604 90.9956 57.8216 92.3574 57.6872 94.0124Z" fill="white"/>
<path d="M66.9038 102.377C66.8226 103.232 66.1978 103.863 65.5203 103.788C64.8762 103.719 64.2153 103.65 63.5601 103.575C62.8992 103.506 62.2328 103.442 61.5664 103.367C60.8834 103.292 60.3918 102.568 60.4563 101.74C60.8297 97.2861 61.2031 92.8209 61.5767 88.3224C61.9503 83.8128 62.3294 79.3254 62.7028 74.8546C62.7784 74.0216 63.4146 73.313 64.137 73.2659C64.8316 73.2242 65.5206 73.1826 66.2153 73.1409C66.9099 73.0992 67.5934 73.0575 68.2713 73.0158C68.9882 72.9742 69.5077 73.6374 69.4265 74.4926C69.3044 75.8533 69.1878 77.2195 69.0601 78.5968C68.938 79.9407 68.8216 81.2736 68.6995 82.6176C68.6239 83.4673 69.1323 84.1471 69.8434 84.1444C70.7657 84.1425 71.6935 84.1407 72.6213 84.1388C73.549 84.137 74.4657 84.1351 75.3657 84.1332C76.0768 84.136 76.713 83.4219 76.8055 82.5278C76.9389 81.1339 77.0667 79.7344 77.2056 78.3349C77.3391 76.9021 77.4726 75.4804 77.6116 74.0643C77.693 73.1757 78.346 72.4172 79.0573 72.3812C79.7575 72.334 80.452 72.2979 81.1522 72.2562C81.8413 72.2146 82.5248 72.1729 83.2027 72.1367C83.9195 72.0951 84.4278 72.7971 84.3352 73.7246C83.8486 78.706 83.3452 83.7262 82.8305 88.7853C82.2992 93.8332 81.7569 98.8366 81.1982 103.784C81.089 104.701 80.4474 105.381 79.7643 105.312C79.1146 105.237 78.4593 105.168 77.804 105.099C77.1376 105.029 76.4712 104.96 75.8049 104.885C75.1274 104.81 74.6472 104.036 74.7396 103.153C74.9128 101.526 75.0804 99.8932 75.2537 98.2495C75.4214 96.589 75.5835 94.9619 75.7455 93.3514C75.8323 92.474 75.3353 91.7386 74.6409 91.7136C73.7466 91.6767 72.8412 91.6398 71.9247 91.6028C70.997 91.5713 70.0861 91.5343 69.1751 91.4973C68.4752 91.4667 67.8503 92.1364 67.7692 92.975C67.6297 94.5134 67.4846 96.0739 67.3448 97.6678C67.1997 99.2394 67.0489 100.806 66.9038 102.377Z" fill="white"/>
<path d="M97.1041 107.887C95.2715 107.702 93.6184 107.084 92.1726 106.045C90.7379 104.984 89.5602 103.579 88.6282 101.864C87.6961 100.166 87.0316 98.2133 86.6516 96.0062C86.2717 93.7658 86.209 91.3766 86.4859 88.8166C86.7517 86.2565 87.3223 83.8921 88.181 81.7178C89.0398 79.5268 90.1308 77.6089 91.4429 75.9808C92.7607 74.3083 94.2605 72.981 95.9421 72.0155C97.6351 71.0056 99.4262 70.4516 101.304 70.3536C103.177 70.25 104.853 70.64 106.322 71.5181C107.819 72.3741 109.058 73.6569 110.029 75.3608C111.022 77.0481 111.708 79.1064 112.093 81.4968C112.461 83.9206 112.49 86.5651 112.172 89.4361C111.85 92.3015 111.228 94.9435 110.319 97.351C109.404 99.6917 108.268 101.698 106.895 103.343C105.549 104.982 104.033 106.209 102.346 107.019C100.693 107.785 98.9478 108.072 97.1041 107.887ZM98.1325 99.4022C99.3655 99.4904 100.484 99.1283 101.465 98.3377C102.457 97.5028 103.278 96.3061 103.946 94.7532C104.63 93.1893 105.093 91.3578 105.329 89.2587C105.565 87.1596 105.506 85.3261 105.167 83.7747C104.851 82.2179 104.289 81.0212 103.487 80.1735C102.691 79.287 101.659 78.8717 100.409 78.8889C99.1812 78.9174 98.0627 79.3629 97.0538 80.2144C96.0615 81.066 95.2456 82.2461 94.5729 83.76C93.928 85.2519 93.5045 86.978 93.2854 88.9716C93.0718 90.9596 93.1148 92.7209 93.4253 94.25C93.758 95.7957 94.3087 97.0202 95.0939 97.94C95.9126 98.8266 96.9161 99.3251 98.1325 99.4022Z" fill="white"/>
<path d="M118.721 109.168C118.01 109.104 117.542 108.197 117.657 107.153C118.152 102.927 118.647 98.6454 119.142 94.3085C119.632 89.916 120.121 85.5512 120.594 81.2142C120.715 80.1425 120.23 79.2739 119.513 79.2821C118.958 79.2965 118.408 79.2999 117.846 79.3032C117.285 79.3176 116.735 79.321 116.185 79.3299C115.463 79.3381 114.977 78.5028 115.087 77.4533C115.185 76.6092 115.272 75.7651 115.364 74.9155C115.456 74.038 115.549 73.1717 115.641 72.3221C115.751 71.2837 116.421 70.4252 117.143 70.3892C119.783 70.2554 122.455 70.1216 125.15 69.988C127.851 69.8599 130.518 69.7372 133.163 69.6256C133.874 69.6007 134.365 70.4915 134.244 71.6077C134.146 72.5295 134.042 73.4736 133.938 74.4232C133.84 75.3506 133.736 76.2724 133.638 77.1886C133.517 78.3271 132.836 79.2354 132.119 79.227C131.591 79.2249 131.047 79.2172 130.497 79.215C129.936 79.2127 129.386 79.2161 128.836 79.2083C128.114 79.211 127.443 80.1083 127.317 81.2189C126.827 85.6781 126.331 90.1539 125.824 94.6464C125.323 99.0722 124.816 103.448 124.321 107.768C124.195 108.834 123.519 109.643 122.814 109.568C122.142 109.504 121.465 109.44 120.782 109.371C120.099 109.307 119.41 109.237 118.721 109.168Z" fill="white"/>
</g>
</g>
</svg>
